# xmcd
#
# Track frame offsets: 
#        150
#        16226
#        31037
#        45274
#        54665
#        63952
#        77653
#        91472
#        105852
#        120311
#
# Disc length: 1728 seconds
#
# Revision: 0
# Processed by: cddbd v1.4PL0 Copyright (c) Steve Scherf et al.
# Submitted via: ExactAudioCopy v0.90b4
#
DISCID=6406be0a
DTITLE=Randy Swift - The Seed's Alive
DYEAR=1995
DGENRE=Gospel
TTITLE0=Don't Let Cain Kell Abel
TTITLE1=I'll Be In Heaven
TTITLE2=Thomas
TTITLE3=God Can
TTITLE4=Set Free
TTITLE5=The Seed's Alive
TTITLE6=Just One
TTITLE7=God Delivers Again
TTITLE8=Where Grandpa Went to Pray
TTITLE9=My Lord Will Send a Moses
EXTD=
EXTT0=
EXTT1=
EXTT2=
EXTT3=
EXTT4=
EXTT5=
EXTT6=
EXTT7=
EXTT8=
EXTT9=
PLAYORDER=
